<svg xmlns="http://www.w3.org/2000/svg" viewBox="0 0 128 128" width="128" height="128">
  <!-- 背景圆形 -->
  <circle cx="64" cy="64" r="60" fill="#4285f4" stroke="#1a73e8" stroke-width="2"/>
  
  <!-- 工具图标组合 -->
  <!-- JSON 大括号 -->
  <path d="M25 35 Q20 35 20 40 L20 50 Q20 55 15 55 Q20 55 20 60 L20 70 Q20 75 25 75" 
        fill="none" stroke="white" stroke-width="3" stroke-linecap="round"/>
  <path d="M103 35 Q108 35 108 40 L108 50 Q108 55 113 55 Q108 55 108 60 L108 70 Q108 75 103 75" 
        fill="none" stroke="white" stroke-width="3" stroke-linecap="round"/>
  
  <!-- 计算器按钮网格 -->
  <rect x="35" y="45" width="8" height="8" rx="1" fill="white" opacity="0.9"/>
  <rect x="45" y="45" width="8" height="8" rx="1" fill="white" opacity="0.9"/>
  <rect x="55" y="45" width="8" height="8" rx="1" fill="white" opacity="0.9"/>
  <rect x="35" y="55" width="8" height="8" rx="1" fill="white" opacity="0.9"/>
  <rect x="45" y="55" width="8" height="8" rx="1" fill="white" opacity="0.9"/>
  <rect x="55" y="55" width="8" height="8" rx="1" fill="white" opacity="0.9"/>
  
  <!-- 正则表达式符号 -->
  <text x="75" y="52" font-family="monospace" font-size="12" fill="white" font-weight="bold">.*</text>
  
  <!-- 编码符号 -->
  <text x="35" y="75" font-family="monospace" font-size="10" fill="white" opacity="0.8">64</text>
  <text x="50" y="75" font-family="monospace" font-size="10" fill="white" opacity="0.8">%20</text>
  
  <!-- 时钟图标 -->
  <circle cx="85" cy="75" r="8" fill="none" stroke="white" stroke-width="2"/>
  <line x1="85" y1="75" x2="85" y2="70" stroke="white" stroke-width="2" stroke-linecap="round"/>
  <line x1="85" y1="75" x2="88" y2="78" stroke="white" stroke-width="1.5" stroke-linecap="round"/>
  
  <!-- 装饰性代码符号 -->
  <text x="30" y="95" font-family="monospace" font-size="8" fill="white" opacity="0.6">&lt;/&gt;</text>
  <text x="85" y="95" font-family="monospace" font-size="8" fill="white" opacity="0.6">{}</text>
  
  <!-- 中心工具图标 -->
  <circle cx="64" cy="64" r="12" fill="white" opacity="0.2"/>
  <path d="M58 64 L64 58 L70 64 L64 70 Z" fill="white" opacity="0.8"/>
</svg>